<svg class="svg-icon" style="width: 1em; height: 1em;vertical-align: middle;fill: currentColor;overflow: hidden;" viewBox="0 0 1024 1024" version="1.1" xmlns="http://www.w3.org/2000/svg"><path d="M512 54.4a480 480 0 0 0-480 480 472.96 472.96 0 0 0 13.44 110.08 320 320 0 0 1 84.48-145.28 384 384 0 0 1 764.48 0 320 320 0 0 1 84.48 145.28A472.32 472.32 0 0 0 992 534.4a480 480 0 0 0-480-480zM291.52 518.4h-16.96c-91.2 0-164.8 107.52-164.8 240s73.92 240 164.8 240h16.96A64 64 0 0 0 352 929.92V587.2a64 64 0 0 0-60.48-68.8z m457.92 0h-16.96A64 64 0 0 0 672 587.2v342.72a64 64 0 0 0 60.48 68.48h16.96c91.2 0 164.8-107.52 164.8-240s-73.92-240-164.8-240z" fill="#231F20" /></svg>